<?xml version="1.0" standalone="no"?>
<!DOCTYPE svg PUBLIC "-//W3C//DTD SVG 20010904//EN"
 "http://www.w3.org/TR/2001/REC-SVG-20010904/DTD/svg10.dtd">
<svg version="1.0" xmlns="http://www.w3.org/2000/svg"
 width="512.000000pt" height="512.000000pt" viewBox="0 0 512.000000 512.000000"
 preserveAspectRatio="xMidYMid meet">

<g transform="translate(0.000000,512.000000) scale(0.100000,-0.100000)"
fill="#000000" stroke="none">
<path d="M2325 5109 c-489 -47 -945 -229 -1345 -537 -195 -150 -448 -432 -594
-662 -63 -99 -186 -351 -230 -471 -201 -549 -205 -1173 -10 -1730 49 -143 189
-423 270 -544 306 -457 714 -790 1214 -988 203 -81 484 -148 687 -164 l83 -6
-1 174 c0 96 -4 226 -10 289 -28 342 -23 422 30 536 35 76 85 132 162 183 105
70 229 107 499 146 390 57 629 156 811 335 129 127 179 240 179 406 0 182 -41
292 -246 661 -307 554 -591 1166 -934 2008 -140 345 -148 360 -176 366 -42 9
-283 8 -389 -2z m-955 -2266 c55 -37 53 -63 -14 -204 -108 -228 -159 -445
-138 -590 25 -174 117 -265 321 -317 51 -12 110 -16 256 -16 181 1 205 3 505
53 413 68 619 91 811 91 231 0 327 -24 370 -93 25 -39 21 -106 -8 -146 -55
-75 -201 -133 -338 -133 -160 -1 -243 56 -203 139 20 42 57 56 113 42 53 -13
182 -8 210 9 16 9 -15 11 -135 12 -213 0 -385 -20 -835 -95 -230 -39 -380 -55
-515 -55 -107 0 -270 22 -345 46 -263 85 -402 300 -381 589 12 163 71 360 164
546 69 137 103 163 162 122z"/>
<path d="M2940 5083 c0 -12 210 -528 315 -773 225 -527 500 -1097 716 -1485
200 -361 251 -488 267 -669 21 -236 -44 -419 -212 -594 -89 -93 -186 -161
-321 -227 -180 -88 -307 -124 -582 -165 -189 -29 -345 -65 -397 -92 -95 -50
-145 -109 -173 -202 -16 -53 -15 -147 6 -391 6 -60 10 -195 10 -299 l1 -189
123 7 c244 14 525 71 746 152 120 44 372 167 471 230 159 101 309 222 451 364
210 210 342 388 470 635 300 578 368 1227 194 1858 -242 881 -966 1585 -1855
1800 -170 42 -230 52 -230 40z"/>
</g>
</svg>
